<?xml version="1.0" standalone="no"?>
<!DOCTYPE svg PUBLIC "-//W3C//DTD SVG 20010904//EN"
 "http://www.w3.org/TR/2001/REC-SVG-20010904/DTD/svg10.dtd">
<svg version="1.0" xmlns="http://www.w3.org/2000/svg"
 width="265.000000pt" height="190.000000pt" viewBox="0 0 265.000000 190.000000"
 preserveAspectRatio="xMidYMid meet">

<g transform="translate(0.000000,190.000000) scale(0.100000,-0.100000)"
fill="#000000" stroke="none">
<path d="M1247 1483 c-4 -3 -7 -21 -7 -40 0 -18 -4 -33 -10 -33 -5 0 -10 -11
-10 -25 0 -16 -6 -25 -15 -25 -13 0 -15 -33 -13 -262 l3 -263 130 0 130 0 3
263 c2 229 0 262 -13 262 -9 0 -15 9 -15 25 0 14 -4 25 -10 25 -5 0 -10 18
-10 40 l0 40 -78 0 c-43 0 -82 -3 -85 -7z m141 -55 c2 -21 7 -38 13 -38 5 0 9
-11 9 -25 0 -16 6 -25 15 -25 13 0 15 -34 14 -247 -1 -137 -4 -238 -6 -225 -5
26 -23 30 -24 5 -1 -12 -4 -10 -9 7 -8 24 -8 24 -9 3 -1 -13 -5 -23 -11 -23
-6 0 -10 93 -10 260 0 167 -4 260 -10 260 -6 0 -10 -87 -10 -240 0 -132 -4
-240 -8 -240 -5 0 -8 106 -8 236 1 130 -2 238 -6 241 -10 5 -10 13 -11 -254
-1 -122 -5 -225 -9 -229 -5 -4 -8 104 -8 239 0 155 -4 247 -10 247 -6 0 -11
-101 -13 -267 -1 -178 -6 -260 -12 -243 l-9 25 -7 -25 c-7 -24 -7 -24 -8 -2
-1 26 -18 30 -24 5 -3 -10 -5 91 -6 225 -1 209 1 242 14 242 9 0 15 9 15 25 0
14 5 25 10 25 6 0 10 18 10 40 l0 41 63 -3 62 -3 3 -37z"/>
<path d="M1283 1425 c0 -22 2 -30 4 -17 2 12 2 30 0 40 -3 9 -5 -1 -4 -23z"/>
<path d="M1309 1455 c-5 -20 -3 -65 4 -65 4 0 7 16 7 35 0 29 -7 48 -11 30z"/>
<path d="M1331 1426 c-1 -29 2 -37 10 -29 8 8 8 19 1 40 -10 28 -10 28 -11
-11z"/>
<path d="M1363 1425 c0 -22 2 -30 4 -17 2 12 2 30 0 40 -3 9 -5 -1 -4 -23z"/>
<path d="M1252 1360 c0 -14 2 -19 5 -12 2 6 2 18 0 25 -3 6 -5 1 -5 -13z"/>
<path d="M1392 1360 c0 -14 2 -19 5 -12 2 6 2 18 0 25 -3 6 -5 1 -5 -13z"/>
<path d="M1220 1310 c0 -5 5 -10 10 -10 6 0 10 5 10 10 0 6 -4 10 -10 10 -5 0
-10 -4 -10 -10z"/>
<path d="M1220 1280 c0 -5 5 -10 10 -10 6 0 10 5 10 10 0 6 -4 10 -10 10 -5 0
-10 -4 -10 -10z"/>
<path d="M1410 1280 c0 -5 5 -10 10 -10 6 0 10 5 10 10 0 6 -4 10 -10 10 -5 0
-10 -4 -10 -10z"/>
<path d="M1220 1250 c0 -5 5 -10 10 -10 6 0 10 5 10 10 0 6 -4 10 -10 10 -5 0
-10 -4 -10 -10z"/>
<path d="M1410 1250 c0 -5 5 -10 10 -10 6 0 10 5 10 10 0 6 -4 10 -10 10 -5 0
-10 -4 -10 -10z"/>
<path d="M1220 1220 c0 -5 5 -10 10 -10 6 0 10 5 10 10 0 6 -4 10 -10 10 -5 0
-10 -4 -10 -10z"/>
<path d="M1410 1220 c0 -5 5 -10 10 -10 6 0 10 5 10 10 0 6 -4 10 -10 10 -5 0
-10 -4 -10 -10z"/>
<path d="M1220 1190 c0 -5 5 -10 10 -10 6 0 10 5 10 10 0 6 -4 10 -10 10 -5 0
-10 -4 -10 -10z"/>
<path d="M1410 1190 c0 -5 5 -10 10 -10 6 0 10 5 10 10 0 6 -4 10 -10 10 -5 0
-10 -4 -10 -10z"/>
<path d="M1220 1160 c0 -5 5 -10 10 -10 6 0 10 5 10 10 0 6 -4 10 -10 10 -5 0
-10 -4 -10 -10z"/>
<path d="M1410 1160 c0 -5 5 -10 10 -10 6 0 10 5 10 10 0 6 -4 10 -10 10 -5 0
-10 -4 -10 -10z"/>
<path d="M1220 1130 c0 -5 5 -10 10 -10 6 0 10 5 10 10 0 6 -4 10 -10 10 -5 0
-10 -4 -10 -10z"/>
<path d="M1410 1130 c0 -5 5 -10 10 -10 6 0 10 5 10 10 0 6 -4 10 -10 10 -5 0
-10 -4 -10 -10z"/>
<path d="M1220 1100 c0 -5 5 -10 10 -10 6 0 10 5 10 10 0 6 -4 10 -10 10 -5 0
-10 -4 -10 -10z"/>
<path d="M1410 1100 c0 -5 5 -10 10 -10 6 0 10 5 10 10 0 6 -4 10 -10 10 -5 0
-10 -4 -10 -10z"/>
<path d="M1410 1070 c0 -5 5 -10 10 -10 6 0 10 5 10 10 0 6 -4 10 -10 10 -5 0
-10 -4 -10 -10z"/>
<path d="M1220 1040 c0 -5 5 -10 10 -10 6 0 10 5 10 10 0 6 -4 10 -10 10 -5 0
-10 -4 -10 -10z"/>
<path d="M1410 1040 c0 -5 5 -10 10 -10 6 0 10 5 10 10 0 6 -4 10 -10 10 -5 0
-10 -4 -10 -10z"/>
<path d="M1410 1010 c0 -5 5 -10 10 -10 6 0 10 5 10 10 0 6 -4 10 -10 10 -5 0
-10 -4 -10 -10z"/>
<path d="M1410 980 c0 -5 5 -10 11 -10 5 0 7 5 4 10 -3 6 -8 10 -11 10 -2 0
-4 -4 -4 -10z"/>
<path d="M1252 960 c0 -14 2 -19 5 -12 2 6 2 18 0 25 -3 6 -5 1 -5 -13z"/>
<path d="M1410 950 c0 -5 5 -10 10 -10 6 0 10 5 10 10 0 6 -4 10 -10 10 -5 0
-10 -4 -10 -10z"/>
<path d="M1225 940 c3 -5 8 -10 11 -10 2 0 4 5 4 10 0 6 -5 10 -11 10 -5 0 -7
-4 -4 -10z"/>
<path d="M1410 920 c0 -5 5 -10 11 -10 5 0 7 5 4 10 -3 6 -8 10 -11 10 -2 0
-4 -4 -4 -10z"/>
<path d="M1225 910 c3 -5 8 -10 11 -10 2 0 4 5 4 10 0 6 -5 10 -11 10 -5 0 -7
-4 -4 -10z"/>
<path d="M802 750 c-16 -15 -22 -32 -22 -64 0 -57 32 -89 86 -84 20 2 39 8 41
15 3 7 -3 9 -16 6 -35 -9 -71 6 -82 34 -22 60 20 109 67 78 35 -23 53 -14 26
13 -28 28 -72 28 -100 2z"/>
<path d="M957 712 c-38 -42 -9 -112 46 -112 35 0 57 25 57 64 0 58 -66 89
-103 48z m77 -34 c17 -48 -40 -83 -64 -39 -14 27 -13 37 6 56 23 22 47 15 58
-17z"/>
<path d="M1099 726 c-1 -1 -3 -29 -4 -63 -1 -45 2 -63 11 -63 9 0 14 18 16 53
3 44 6 52 23 52 17 0 20 -8 23 -52 2 -36 7 -53 16 -53 10 0 13 14 12 46 -1 35
4 50 17 58 24 15 37 -6 37 -61 0 -31 4 -43 14 -43 8 0 18 5 21 10 3 6 2 10 -4
10 -5 0 -11 21 -13 46 -4 55 -26 77 -58 57 -12 -8 -21 -9 -25 -3 -5 7 -76 12
-86 6z"/>
<path d="M1317 723 c-4 -3 -7 -44 -7 -90 0 -67 3 -83 15 -83 10 0 15 10 15 29
0 25 3 28 25 23 69 -13 98 107 30 124 -15 4 -32 1 -40 -6 -10 -9 -15 -9 -15
-1 0 12 -13 15 -23 4z m83 -27 c15 -19 9 -56 -11 -69 -25 -16 -49 -1 -49 31 0
46 35 68 60 38z"/>
<path d="M1483 723 c-7 -2 -13 -9 -13 -14 0 -6 5 -7 11 -4 16 10 59 -4 59 -19
0 -9 -7 -12 -19 -9 -26 7 -61 -14 -61 -36 0 -28 20 -39 71 -39 l46 1 -5 46
c-7 68 -39 95 -89 74z m55 -80 c-4 -22 -48 -31 -48 -10 0 19 10 27 32 27 13 0
18 -6 16 -17z"/>
<path d="M1610 663 c0 -44 4 -63 13 -63 8 0 12 15 12 46 0 33 5 50 17 57 27
17 48 -9 48 -59 0 -32 4 -44 14 -44 8 0 18 5 21 10 3 6 1 10 -4 10 -6 0 -11
16 -11 36 0 59 -14 74 -65 72 l-45 -2 0 -63z"/>
<path d="M1760 683 c0 -27 4 -55 9 -62 6 -9 6 -22 0 -32 -11 -22 13 -49 45
-49 47 0 65 52 57 168 -2 44 -20 21 -23 -30 -3 -49 -5 -53 -28 -53 -23 0 -25
4 -28 53 -2 37 -7 52 -18 52 -10 0 -14 -13 -14 -47z m77 -110 c-17 -17 -51
-10 -45 9 5 15 52 28 57 15 2 -5 -4 -16 -12 -24z"/>
</g>
</svg>
