<?xml version="1.0" standalone="no"?>
<!DOCTYPE svg PUBLIC "-//W3C//DTD SVG 20010904//EN"
 "http://www.w3.org/TR/2001/REC-SVG-20010904/DTD/svg10.dtd">
<svg version="1.0" xmlns="http://www.w3.org/2000/svg"
 width="225.000000pt" height="225.000000pt" viewBox="0 0 225.000000 225.000000"
 preserveAspectRatio="xMidYMid meet">

<g transform="translate(0.000000,225.000000) scale(0.100000,-0.100000)"
fill="#000000" stroke="none">
<path d="M1117 1796 c-24 -25 -55 -110 -62 -169 l-5 -34 63 -5 c61 -5 146 -33
134 -44 -3 -3 -20 2 -38 12 -19 9 -64 19 -101 22 l-66 5 -7 -59 c-10 -92 -12
-102 -14 -59 -2 61 28 212 54 277 l24 59 -41 -23 c-106 -60 -199 -240 -184
-356 l6 -47 -14 38 c-8 21 -16 41 -19 43 -7 7 -156 -25 -197 -42 -110 -47 -89
-109 50 -147 114 -31 105 -34 106 36 1 57 27 147 39 135 3 -3 -2 -22 -11 -44
-17 -41 -24 -137 -11 -150 4 -5 29 -11 55 -16 38 -6 34 -6 -18 -2 -80 5 -203
38 -247 66 -38 23 -41 13 -14 -41 23 -44 75 -92 129 -120 70 -36 180 -64 225
-57 42 6 42 5 12 -7 l-30 -13 50 -20 c29 -11 75 -19 110 -19 l60 0 6 35 c5 26
7 28 7 10 2 -43 -37 -201 -58 -238 -12 -19 -18 -37 -16 -40 13 -13 105 36 147
78 57 57 82 126 83 226 1 40 4 67 7 61 13 -20 42 59 47 126 4 52 1 71 -9 79
-20 14 74 1 136 -19 28 -8 64 -24 82 -35 l32 -19 -10 29 c-19 55 -76 110 -159
151 -109 55 -176 69 -221 47 -26 -13 -29 -13 -14 -2 46 35 47 37 41 88 -15
113 -69 228 -106 228 -6 0 -21 -11 -33 -24z m73 -310 c0 -2 -12 -11 -27 -20
l-28 -17 24 20 c23 21 31 25 31 17z m-60 -39 c0 -2 -12 -14 -27 -28 l-28 -24
24 28 c23 25 31 32 31 24z m-83 -76 c14 19 23 27 20 19 -4 -13 2 -15 30 -12
22 3 40 -1 52 -12 10 -9 20 -13 23 -10 3 3 9 0 14 -7 4 -7 3 -10 -3 -6 -7 4
-9 -9 -5 -38 3 -34 0 -50 -12 -64 -9 -9 -14 -20 -12 -22 3 -2 -21 -6 -52 -7
l-57 -3 -17 41 c-12 26 -17 62 -16 103 1 44 3 51 5 23 l4 -38 26 33z m191 2
c-16 -2 -40 -2 -55 0 -16 2 -3 4 27 4 30 0 43 -2 28 -4z m-339 -33 c11 -24 11
-24 -3 -6 -9 11 -16 24 -16 30 0 12 5 7 19 -24z m434 23 c-13 -2 -33 -2 -45 0
-13 2 -3 4 22 4 25 0 35 -2 23 -4z m-93 -58 c19 -19 32 -35 29 -35 -3 0 -20
16 -39 35 -19 19 -32 35 -29 35 3 0 20 -16 39 -35z m-300 -20 c13 -14 21 -25
18 -25 -2 0 -15 11 -28 25 -13 14 -21 25 -18 25 2 0 15 -11 28 -25z m360 -66
c12 -23 20 -43 18 -45 -3 -2 -14 17 -26 41 -27 56 -20 60 8 4z m-123 -86 c-2
-21 -4 -6 -4 32 0 39 2 55 4 38 2 -18 2 -50 0 -70z m-164 80 c-13 -2 -35 -2
-50 0 -16 2 -5 4 22 4 28 0 40 -2 28 -4z m111 -55 c-22 -25 -103 -78 -118 -78
-6 0 12 13 39 29 28 16 59 38 69 50 11 11 21 21 24 21 3 0 -3 -10 -14 -22z"/>
<path d="M1388 1274 c-3 -49 -12 -84 -26 -109 l-22 -36 47 7 c121 17 233 67
233 103 0 38 -77 80 -186 100 l-42 8 -4 -73z"/>
<path d="M943 994 c12 -99 57 -207 93 -221 36 -14 81 66 109 195 l7 32 -45 0
c-39 0 -99 14 -151 35 -18 8 -19 5 -13 -41z"/>
<path d="M730 668 c0 -9 -6 -19 -12 -21 -10 -4 -10 -6 0 -6 6 -1 12 -10 12
-21 0 -11 -6 -20 -12 -20 -9 0 -9 -3 1 -9 8 -5 12 -19 9 -35 -3 -14 -1 -26 3
-26 5 0 9 16 9 36 0 29 3 35 16 30 9 -3 20 -6 25 -6 5 0 9 -5 9 -11 0 -6 -7
-8 -16 -5 -9 3 -12 2 -9 -5 4 -5 1 -18 -7 -27 -12 -15 -11 -16 5 -3 13 10 20
11 31 2 10 -9 19 -7 37 8 19 15 23 28 24 75 l0 56 -49 0 c-40 0 -47 -3 -42
-16 3 -9 6 -24 6 -35 0 -15 8 -19 38 -20 32 -2 33 -3 8 -6 -39 -6 -76 4 -76
21 0 8 4 16 9 18 5 2 3 12 -5 22 -11 16 -14 17 -14 4z m100 -13 c0 -10 -9 -15
-27 -14 -16 0 -22 3 -15 6 6 2 10 9 6 14 -3 5 4 9 15 9 12 0 21 -7 21 -15z
m-2 -32 c-10 -2 -26 -2 -35 0 -10 3 -2 5 17 5 19 0 27 -2 18 -5z m-11 -70
c-11 -10 -26 8 -20 23 5 15 7 14 15 -1 6 -9 7 -19 5 -22z m23 27 c0 -5 -2 -10
-4 -10 -3 0 -8 5 -11 10 -3 6 -1 10 4 10 6 0 11 -4 11 -10z"/>
<path d="M940 607 l0 -72 70 0 71 0 -3 70 -3 70 -67 2 -68 2 0 -72z m35 33
c-17 -18 -17 -20 -2 -14 22 8 22 -5 0 -22 -17 -12 -17 -12 2 -11 11 1 23 6 26
11 4 4 16 3 28 -3 14 -8 21 -8 21 -1 0 5 -7 10 -17 10 -15 0 -15 2 1 19 17 19
17 20 -11 24 -28 4 -28 4 3 6 30 1 32 -1 36 -37 6 -68 3 -72 -58 -72 l-54 0 0
54 c0 44 3 55 18 58 25 6 27 0 7 -22z m47 -12 c-9 -9 -15 -9 -24 0 -9 9 -7 12
12 12 19 0 21 -3 12 -12z"/>
<path d="M1008 563 c6 -2 18 -2 25 0 6 3 1 5 -13 5 -14 0 -19 -2 -12 -5z"/>
<path d="M1175 670 c-11 -5 -14 -9 -7 -9 17 -1 15 -21 -3 -21 -8 0 -15 -4 -15
-10 0 -5 5 -10 11 -10 6 0 8 -7 5 -15 -3 -8 -9 -23 -12 -32 -5 -16 -4 -16 9 0
15 18 16 17 20 -15 l4 -33 1 38 c1 21 6 36 11 32 13 -7 10 38 -3 47 -6 4 -5
12 3 22 15 17 7 19 -24 6z"/>
<path d="M1272 633 c-2 -48 -4 -52 -29 -56 l-28 -4 28 -2 c21 -1 27 -6 28 -23
1 -21 2 -21 6 -3 3 11 10 26 15 33 7 8 7 12 0 12 -6 0 -13 21 -15 48 l-3 47
-2 -52z"/>
<path d="M1390 666 c0 -8 -6 -17 -12 -19 -10 -4 -10 -6 0 -6 6 -1 12 -10 12
-21 0 -11 -6 -20 -12 -20 -9 0 -9 -3 1 -9 8 -5 12 -19 9 -35 -3 -14 -2 -26 3
-26 11 0 21 36 21 76 0 19 4 35 9 35 32 5 43 3 47 -8 2 -8 -5 -13 -17 -13 -21
0 -21 -1 -6 -31 16 -29 15 -31 -4 -36 -12 -3 -21 -9 -21 -14 0 -5 12 -4 26 1
17 7 32 6 46 -1 11 -6 22 -8 25 -6 2 3 -5 10 -16 17 -20 10 -20 13 -6 33 19
27 19 37 0 37 -8 0 -15 7 -15 16 0 8 4 13 8 10 4 -2 14 -1 22 5 12 7 10 9 -7
9 -13 0 -23 6 -23 13 0 8 -3 9 -8 1 -4 -6 -19 -14 -34 -18 -21 -5 -28 -3 -28
9 0 8 -4 15 -10 15 -5 0 -10 -6 -10 -14z m98 -68 c-3 -7 -11 -13 -18 -13 -7 0
-15 6 -17 13 -3 7 4 12 17 12 13 0 20 -5 18 -12z"/>
<path d="M1230 666 c0 -2 7 -9 15 -16 9 -7 15 -8 15 -2 0 5 -7 12 -15 16 -8 3
-15 4 -15 2z"/>
<path d="M1235 610 c3 -5 11 -10 16 -10 6 0 7 5 4 10 -3 6 -11 10 -16 10 -6 0
-7 -4 -4 -10z"/>
<path d="M845 540 c3 -5 8 -10 11 -10 2 0 4 5 4 10 0 6 -5 10 -11 10 -5 0 -7
-4 -4 -10z"/>
<path d="M700 452 c0 -6 5 -14 10 -17 6 -4 7 -11 4 -17 -4 -7 -2 -8 5 -4 9 6
9 12 -1 24 -7 10 -14 19 -15 21 -2 2 -3 -1 -3 -7z"/>
<path d="M832 440 c0 -14 2 -19 5 -12 2 6 2 18 0 25 -3 6 -5 1 -5 -13z"/>
<path d="M1073 445 c-3 -9 -3 -18 -1 -21 3 -3 8 4 11 16 6 23 -1 27 -10 5z"/>
<path d="M1263 445 c0 -8 4 -12 9 -9 5 3 6 10 3 15 -9 13 -12 11 -12 -6z"/>
<path d="M1292 435 c0 -16 2 -22 5 -12 2 9 2 23 0 30 -3 6 -5 -1 -5 -18z"/>
<path d="M1400 450 c0 -5 5 -10 11 -10 5 0 7 5 4 10 -3 6 -8 10 -11 10 -2 0
-4 -4 -4 -10z"/>
<path d="M915 440 c-3 -5 -1 -10 4 -10 6 0 11 5 11 10 0 6 -2 10 -4 10 -3 0
-8 -4 -11 -10z"/>
<path d="M1021 434 c0 -11 3 -14 6 -6 3 7 2 16 -1 19 -3 4 -6 -2 -5 -13z"/>
<path d="M1097 431 c-4 -17 -3 -21 5 -13 5 5 8 16 6 23 -3 8 -7 3 -11 -10z"/>
<path d="M748 433 c7 -3 16 -2 19 1 4 3 -2 6 -13 5 -11 0 -14 -3 -6 -6z"/>
<path d="M780 431 c0 -10 19 -25 25 -20 1 2 -3 10 -11 17 -8 7 -14 8 -14 3z"/>
<path d="M1120 431 c0 -10 19 -25 25 -20 1 2 -3 10 -11 17 -8 7 -14 8 -14 3z"/>
<path d="M1370 420 c-9 -6 -10 -10 -3 -10 6 0 15 5 18 10 8 12 4 12 -15 0z"/>
<path d="M1457 419 c7 -7 15 -10 18 -7 3 3 -2 9 -12 12 -14 6 -15 5 -6 -5z"/>
</g>
</svg>
